<?xml version="1.0" encoding="UTF-8" standalone="no"?>
<svg width="783px" height="441px" viewBox="0 0 783 441" version="1.1" xmlns="http://www.w3.org/2000/svg" xmlns:xlink="http://www.w3.org/1999/xlink">
    <!-- Generator: Sketch 40.3 (33839) - http://www.bohemiancoding.com/sketch -->
    <title>Graph</title>
    <desc>Created with Sketch.</desc>
    <defs>
        <linearGradient x1="50%" y1="0%" x2="50%" y2="91.2000034%" id="linearGradient-1">
            <stop stop-color="#65EA7F" offset="0%"></stop>
            <stop stop-color="#8455FA" offset="100%"></stop>
        </linearGradient>
        <linearGradient x1="50%" y1="0%" x2="50%" y2="130.15286%" id="linearGradient-2">
            <stop stop-color="#ADCA00" offset="0%"></stop>
            <stop stop-color="#00ADF2" offset="100%"></stop>
        </linearGradient>
    </defs>
    <g id="Page-1" stroke="none" stroke-width="1" fill="none" fill-rule="evenodd">
        <g id="Home" transform="translate(-1158.000000, -248.000000)">
            <g id="Hero" transform="translate(630.000000, 248.000000)">
                <g id="Graph" transform="translate(528.000000, 0.000000)">
                    <path d="M782.535527,381.829489 C643.301764,381.829489 666.834231,234.543415 586.431635,234.543415 C506.029039,234.543415 494.262805,394.45401 360.912158,394.45401 C227.561511,394.45401 205.990083,175.628985 137.353721,175.628985 C68.7173585,175.628985 60.8732028,440.743915 0.0809960937,440.743915 L0.0809960937,440.74393 L782.535527,440.743919 L782.535527,381.829489 Z" id="Path-3" fill="url(#linearGradient-1)"></path>
                    <path d="M782.535527,440.952092 C782.535527,445.160266 782.535525,106.19974 782.535525,0.0625 C754.664065,11.546875 731.817734,68.4921875 640.253906,68.4921875 C548.690078,68.4921875 536.977988,215.98273 489.115078,215.98273 C441.252168,215.98273 445.41416,303.015267 414.199219,303.015267 C382.984277,303.015267 382.984277,232.964688 335.121367,232.964688 C287.258457,232.964688 272.691484,345.470162 226.90957,345.470162 C181.127656,345.470162 168.64168,273.296839 120.77877,273.296839 C72.9158594,273.296839 62.5108789,440.952087 0.0809960937,440.952087" id="Path-4" fill="url(#linearGradient-2)"></path>
                </g>
            </g>
        </g>
    </g>
</svg>