<?xml version="1.0" encoding="UTF-8" standalone="no"?>
<svg width="112px" height="112px" viewBox="0 0 112 112" version="1.1" xmlns="http://www.w3.org/2000/svg" xmlns:xlink="http://www.w3.org/1999/xlink">
    <!-- Generator: Sketch 40.3 (33839) - http://www.bohemiancoding.com/sketch -->
    <title>icon-github</title>
    <desc>Created with Sketch.</desc>
    <defs>
        <rect id="path-1" x="0" y="0" width="112" height="112" rx="1"></rect>
        <mask id="mask-2" maskContentUnits="userSpaceOnUse" maskUnits="objectBoundingBox" x="0" y="0" width="112" height="112" fill="white">
            <use xlink:href="#path-1"></use>
        </mask>
    </defs>
    <g id="Page-1" stroke="none" stroke-width="1" fill="none" fill-rule="evenodd">
        <g id="Home" transform="translate(-1301.000000, -1617.000000)">
            <g id="Service-Product" transform="translate(648.000000, 866.000000)">
                <g id="4" transform="translate(653.000000, 744.000000)">
                    <g id="icon-github" transform="translate(0.000000, 7.000000)">
                        <use id="box" stroke="#DDDDDD" mask="url(#mask-2)" stroke-width="2" xlink:href="#path-1"></use>
                        <path d="M75.1272962,31.627517 C73.5791138,30.0802057 71.7000388,29.3063323 69.4889097,29.3063323 C67.278797,29.3063323 65.3995768,30.0797702 63.85183,31.627517 C62.304664,33.1748282 61.5310809,35.053758 61.5310809,37.2650323 C61.5310809,38.7019976 61.8892696,40.035441 62.6078249,41.2650721 C63.3262349,42.4948484 64.2926329,43.4554388 65.5094872,44.145972 C65.5094872,45.5829373 65.3926076,46.8477049 65.1581225,47.9391132 C64.9226211,49.0305215 64.5361199,49.9903859 63.9974576,50.820013 C63.4573433,51.6492046 62.8989348,52.3533858 62.3181668,52.9340087 C61.7372536,53.5146315 60.9220005,54.0599727 59.8719718,54.5714841 C58.8220884,55.0827052 57.8472693,55.5105861 56.9494019,55.8565786 C56.0515345,56.2014096 54.8420851,56.6089636 53.3222151,57.0789501 C50.5583401,57.9360186 48.4308416,58.7229593 46.9384129,59.4419501 L46.9384129,38.8394944 C48.154396,38.1491064 49.1216651,37.1886613 49.8400752,35.958885 C50.5583401,34.7291087 50.9175451,33.3955201 50.9175451,31.9585548 C50.9175451,29.7480064 50.1441073,27.8686411 48.5963605,26.3213298 C47.0491944,24.7741638 45.1702646,24 42.9591355,24 C40.7478612,24 38.8689315,24.773583 37.3211846,26.3213298 C35.7740186,27.8686411 35,29.7480064 35,31.9585548 C35,33.3955201 35.359205,34.7291087 36.0774699,35.958885 C36.79588,37.1886613 37.7630039,38.1491064 38.9791322,38.8394944 L38.9791322,72.8314119 C37.7630039,73.5215095 36.79588,74.482971 36.0774699,75.7123118 C35.359205,76.9425236 35,78.2761122 35,79.712642 C35,81.9231903 35.7734378,83.8024105 37.3211846,85.3495765 C38.8689315,86.8967426 40.7482968,87.6709064 42.9591355,87.6709064 C45.1698291,87.6709064 47.0491944,86.8967426 48.5963605,85.3495765 C50.1436717,83.8024105 50.9175451,81.9230451 50.9175451,79.712642 C50.9175451,78.2761122 50.5583401,76.9425236 49.8400752,75.7123118 C49.12152,74.482971 48.154396,73.5215095 46.9384129,72.8314119 L46.9384129,71.7536516 C46.9384129,69.8471354 47.5117762,68.4657786 48.6585026,67.6092909 C49.8052291,66.7516418 52.1473214,65.7708697 55.6850699,64.6658134 C59.4163593,63.4772716 62.2217593,62.3574056 64.1008343,61.3069414 C70.2908052,57.7980862 73.4137401,52.0773758 73.4687679,44.1458268 C74.6856221,43.4554388 75.6520201,42.4947033 76.3704302,41.2649269 C77.0884047,40.0351506 77.4481905,38.7018524 77.4481905,37.2648871 C77.448626,35.0541936 76.6746074,33.1752638 75.1272962,31.627517 L75.1272962,31.627517 Z M45.778474,82.532416 C45.0043102,83.3064346 44.0647727,83.6930809 42.9597163,83.6930809 C41.853934,83.6930809 40.9143965,83.3064346 40.1405231,82.532416 C39.3670852,81.7592685 38.9798581,80.8191503 38.9798581,79.7140939 C38.9798581,78.6081664 39.3666497,77.6690645 40.1405231,76.8949007 C40.9143965,76.1213176 41.853934,75.7342358 42.9597163,75.7342358 C44.0647727,75.7342358 45.0044554,76.1217532 45.778474,76.8949007 C46.5523474,77.6690645 46.9389937,78.6081664 46.9389937,79.7140939 C46.9388485,80.8191503 46.5523474,81.7591233 45.778474,82.532416 L45.778474,82.532416 Z M45.778474,34.7778932 C45.0043102,35.5517666 44.0647727,35.9385581 42.9597163,35.9385581 C41.853934,35.9385581 40.9143965,35.5517666 40.1405231,34.7778932 C39.3670852,34.0040198 38.9798581,33.0649179 38.9798581,31.9591355 C38.9798581,30.8536436 39.3666497,29.9138157 40.1405231,29.1406683 C40.9143965,28.36694 41.853934,27.9800033 42.9597163,27.9800033 C44.0647727,27.9800033 45.0044554,28.3670852 45.778474,29.1406683 C46.5523474,29.9138157 46.9389937,30.8536436 46.9389937,31.9591355 C46.9388485,33.0649179 46.5523474,34.0044554 45.778474,34.7778932 L45.778474,34.7778932 Z M72.308103,40.0842255 C71.5345199,40.8576634 70.595418,41.2447453 69.4899261,41.2447453 C68.3838534,41.2447453 67.4441707,40.8576634 66.6711684,40.0842255 C65.8975854,39.3107877 65.5105035,38.371105 65.5105035,37.2654679 C65.5105035,36.1599759 65.8975854,35.2207288 66.6711684,34.4467102 C67.4447514,33.6726916 68.3838534,33.2861905 69.4899261,33.2861905 C70.595418,33.2861905 71.5345199,33.6728368 72.308103,34.4467102 C73.081686,35.2200029 73.4687679,36.1598307 73.4687679,37.2654679 C73.4687679,38.3709598 73.0822668,39.3107877 72.308103,40.0842255 L72.308103,40.0842255 Z" id="Shape" fill="#36404C"></path>
                    </g>
                </g>
            </g>
        </g>
    </g>
</svg>