<?xml version="1.0" encoding="UTF-8" standalone="no"?>
<svg width="32px" height="32px" viewBox="0 0 32 32" version="1.1" xmlns="http://www.w3.org/2000/svg" xmlns:xlink="http://www.w3.org/1999/xlink">
    <!-- Generator: Sketch 40.3 (33839) - http://www.bohemiancoding.com/sketch -->
    <title>icon-photo</title>
    <desc>Created with Sketch.</desc>
    <defs></defs>
    <g id="Page-1" stroke="none" stroke-width="1" fill="none" fill-rule="evenodd">
        <g id="Home" transform="translate(-1295.000000, -3091.000000)" fill="#F17273">
            <g id="Events" transform="translate(-31.000000, 2368.000000)">
                <g id="Intro" transform="translate(681.000000, 615.000000)">
                    <g id="picture" transform="translate(645.000000, 108.000000)">
                        <g id="Layer_1">
                            <g id="icon-photo">
                                <path d="M18.9090909,14.5454545 C21.5825455,14.5454545 23.7575758,12.3704242 23.7575758,9.6969697 C23.7575758,7.02351515 21.5825455,4.84848485 18.9090909,4.84848485 C16.2356364,4.84848485 14.0606061,7.02351515 14.0606061,9.6969697 C14.0606061,12.3704242 16.2356364,14.5454545 18.9090909,14.5454545 L18.9090909,14.5454545 Z M18.9090909,7.75757576 C19.9784727,7.75757576 20.8484848,8.62758788 20.8484848,9.6969697 C20.8484848,10.7663515 19.9784727,11.6363636 18.9090909,11.6363636 C17.8397091,11.6363636 16.969697,10.7663515 16.969697,9.6969697 C16.969697,8.62758788 17.8397091,7.75757576 18.9090909,7.75757576 L18.9090909,7.75757576 Z" id="XMLID_11_"></path>
                                <path d="M30.5454545,0 L1.45454545,0 C0.651248485,0 0,0.651248485 0,1.45454545 L0,24.7082667 L0,24.7111758 L0,30.5454545 C0,31.3487515 0.651248485,32 1.45454545,32 L30.5454545,32 C31.3487515,32 32,31.3487515 32,30.5454545 L32,1.45454545 C32,0.651248485 31.3487515,0 30.5454545,0 L30.5454545,0 Z M29.0909091,2.90909091 L29.0909091,20.3283394 L25.8950788,16.0240485 C25.6207515,15.654497 25.1875879,15.4366061 24.7272727,15.4366061 C24.2669576,15.4366061 23.8337939,15.654497 23.5594667,16.0240485 L18.9504,22.2316606 L11.3777455,11.2932848 C11.1060364,10.9008485 10.659103,10.6666667 10.1818182,10.6666667 C9.70453333,10.6666667 9.2576,10.9008485 8.98589091,11.2932848 L2.90909091,20.0708848 L2.90909091,2.90909091 L29.0909091,2.90909091 L29.0909091,2.90909091 Z M2.90909091,29.0909091 L2.90909091,25.1815758 L10.1818182,14.6765576 L17.7131636,25.5552 C17.9800242,25.9406545 18.4162909,26.1738667 18.8850424,26.1816242 C19.3545697,26.188703 19.7974303,25.9708121 20.076897,25.5943758 L24.7272727,19.331103 L29.0909091,25.2081455 L29.0909091,29.0909091 L2.90909091,29.0909091 L2.90909091,29.0909091 Z" id="XMLID_14_"></path>
                            </g>
                        </g>
                    </g>
                </g>
            </g>
        </g>
    </g>
</svg>