<?xml version="1.0" encoding="UTF-8" standalone="no"?>
<svg width="112px" height="112px" viewBox="0 0 112 112" version="1.1" xmlns="http://www.w3.org/2000/svg" xmlns:xlink="http://www.w3.org/1999/xlink">
    <!-- Generator: Sketch 40.3 (33839) - http://www.bohemiancoding.com/sketch -->
    <title>icon-training</title>
    <desc>Created with Sketch.</desc>
    <defs>
        <rect id="path-1" x="0" y="0" width="112" height="112" rx="1"></rect>
        <mask id="mask-2" maskContentUnits="userSpaceOnUse" maskUnits="objectBoundingBox" x="0" y="0" width="112" height="112" fill="white">
            <use xlink:href="#path-1"></use>
        </mask>
    </defs>
    <g id="Page-1" stroke="none" stroke-width="1" fill="none" fill-rule="evenodd">
        <g id="Home" transform="translate(-650.000000, -1450.000000)">
            <g id="Service-Product" transform="translate(648.000000, 866.000000)">
                <g id="1" transform="translate(2.000000, 577.000000)">
                    <g id="icon-training" transform="translate(0.000000, 7.000000)">
                        <use id="Rectangle-5" stroke="#DDDDDD" mask="url(#mask-2)" stroke-width="2" xlink:href="#path-1"></use>
                        <path d="M83.6196271,70.8159968 C83.4171017,70.6096136 83.1572712,70.507263 82.8409661,70.507263 L50.3222881,70.507263 C50.0062203,70.507263 49.7463898,70.6097338 49.5431525,70.8159968 C49.3401525,71.021539 49.2388305,71.2841429 49.2388305,71.6044091 L49.2388305,73.7996623 C49.2388305,74.1194481 49.3401525,74.3826526 49.5431525,74.5880747 C49.7463898,74.793737 50.0062203,74.8968084 50.3222881,74.8968084 L82.8409661,74.8968084 C83.1572712,74.8968084 83.4171017,74.793737 83.6196271,74.5880747 C83.8226271,74.3825325 83.9241864,74.1194481 83.9241864,73.7996623 L83.9241864,71.6044091 C83.924661,71.2841429 83.8235763,71.021539 83.6196271,70.8159968 L83.6196271,70.8159968 Z" id="Shape" fill="#36404C"></path>
                        <path d="M31.5900508,38.3693994 C31.3642712,38.1407922 31.1044407,38.0263084 30.8109153,38.0263084 C30.5173898,38.0263084 30.2579153,38.1407922 30.0322542,38.3693994 L28.3383729,40.0846136 C28.1127119,40.3131006 28,40.5758247 28,40.8732662 C28,41.1709481 28.1127119,41.4335519 28.3383729,41.6621591 L41.6511864,55.1413312 L28.3383729,68.6206234 C28.1127119,68.8492305 28,69.1123149 28,69.4091558 C28,69.7068377 28.1127119,69.9695617 28.3383729,70.1980487 L30.0321356,71.9126623 C30.2579153,72.1416299 30.5172712,72.255513 30.8107966,72.255513 C31.104322,72.255513 31.3642712,72.1412695 31.5899322,71.9126623 L47.3752881,55.9299838 C47.6010678,55.7014968 47.7137797,55.4379318 47.7137797,55.1407305 C47.7137797,54.8436494 47.6010678,54.5805649 47.3752881,54.3520779 L31.5900508,38.3693994 L31.5900508,38.3693994 Z" id="Shape" fill="#36404C"></path>
                    </g>
                </g>
            </g>
        </g>
    </g>
</svg>