<?xml version="1.0" encoding="UTF-8" standalone="no"?>
<svg width="112px" height="112px" viewBox="0 0 112 112" version="1.1" xmlns="http://www.w3.org/2000/svg" xmlns:xlink="http://www.w3.org/1999/xlink">
    <!-- Generator: Sketch 40.3 (33839) - http://www.bohemiancoding.com/sketch -->
    <title>icon-consult</title>
    <desc>Created with Sketch.</desc>
    <defs>
        <rect id="path-1" x="0" y="0" width="112" height="112" rx="1"></rect>
        <mask id="mask-2" maskContentUnits="userSpaceOnUse" maskUnits="objectBoundingBox" x="0" y="0" width="112" height="112" fill="white">
            <use xlink:href="#path-1"></use>
        </mask>
    </defs>
    <g id="Page-1" stroke="none" stroke-width="1" fill="none" fill-rule="evenodd">
        <g id="Home" transform="translate(-1301.000000, -1450.000000)">
            <g id="Service-Product" transform="translate(648.000000, 866.000000)">
                <g id="2" transform="translate(653.000000, 577.000000)">
                    <g id="icon-consult" transform="translate(0.000000, 7.000000)">
                        <use id="Rectangle-5" stroke="#DDDDDD" mask="url(#mask-2)" stroke-width="2" xlink:href="#path-1"></use>
                        <path d="M84,33.632963 C84,31.1253704 81.9136789,29.0925926 79.3400836,29.0925926 L33.6599164,29.0925926 C31.0863211,29.0925926 29,31.1253704 29,33.632963 L29,79.3672222 C29,81.8746296 31.0863211,83.9074074 33.6599164,83.9074074 L79.3400836,83.9074074 C81.9136789,83.9074074 84,81.8746296 84,79.367037 L84,33.632963 L84,33.632963 Z M72.2141806,62.0316667 C69.184398,62.0316667 66.7195151,59.5501852 66.7195151,56.5 C66.7195151,53.4498148 69.184398,50.9683333 72.2141806,50.9683333 C75.2439632,50.9683333 77.7088462,53.4498148 77.7088462,56.5 C77.7088462,59.5501852 75.2437793,62.0316667 72.2141806,62.0316667 L72.2141806,62.0316667 Z M77.7088462,72.3509259 C77.7088462,75.4011111 75.2439632,77.8825926 72.2141806,77.8825926 C69.184398,77.8825926 66.7195151,75.4011111 66.7195151,72.3509259 C66.7195151,69.3005556 69.184398,66.8188889 72.2141806,66.8188889 C75.2439632,66.8188889 77.7088462,69.3005556 77.7088462,72.3509259 L77.7088462,72.3509259 Z M72.2141806,46.1811111 C71.1853679,46.1811111 70.222408,45.8944444 69.3981438,45.397037 L61.2103177,53.7092593 C61.6885786,54.5292593 61.9639465,55.4825926 61.9639465,56.5 C61.9639465,59.5501852 59.4990635,62.0316667 56.4692809,62.0316667 C55.4750502,62.0316667 54.5424415,61.7631481 53.7371237,61.2961111 L45.5141639,69.6440741 C45.9626254,70.4448148 46.2195987,71.367963 46.2195987,72.3507407 C46.2195987,75.4009259 43.7545318,77.8824074 40.7243813,77.8824074 C37.6945987,77.8824074 35.2298997,75.4009259 35.2298997,72.3507407 C35.2298997,69.3003704 37.6945987,66.8187037 40.7243813,66.8187037 C41.7787625,66.8187037 42.7645318,67.1198148 43.6020401,67.6405556 L51.7642977,59.3540741 C51.2632274,58.5201852 50.9746154,57.5435185 50.9746154,56.5 C50.9746154,53.4498148 53.4394983,50.9683333 56.4692809,50.9683333 C57.4892642,50.9683333 58.4446823,51.2505556 59.2641639,51.7401852 L67.4608194,43.4188889 C67.2170903,42.9962963 67.0263378,42.5390741 66.8999666,42.0555556 L61.783311,42.0555556 C61.1635953,44.4268519 59.016204,46.1811111 56.469097,46.1811111 C53.92199,46.1811111 51.7747826,44.4266667 51.1548829,42.0555556 L46.0389632,42.0555556 C45.4192475,44.4268519 43.2716722,46.1811111 40.7241973,46.1811111 C37.6944147,46.1811111 35.2297157,43.6994444 35.2297157,40.6490741 C35.2297157,37.5988889 37.6944147,35.1174074 40.7241973,35.1174074 C43.2841806,35.1174074 45.4407692,36.8887037 46.0481605,39.2777778 L51.1456856,39.2777778 C51.7532609,36.8888889 53.9094816,35.1174074 56.469097,35.1174074 C59.0287124,35.1174074 61.1851171,36.8887037 61.7925084,39.2777778 L66.8902174,39.2777778 C67.4979766,36.8888889 69.6541973,35.1174074 72.2138127,35.1174074 C75.2435953,35.1174074 77.7084783,37.5988889 77.7084783,40.6490741 C77.7088462,43.6994444 75.2437793,46.1811111 72.2141806,46.1811111 L72.2141806,46.1811111 Z M61.9639465,72.3509259 C61.9639465,75.4011111 59.4990635,77.8825926 56.4692809,77.8825926 C53.4394983,77.8825926 50.9746154,75.4011111 50.9746154,72.3509259 C50.9746154,69.3005556 53.4394983,66.8188889 56.4692809,66.8188889 C59.4990635,66.8188889 61.9639465,69.3005556 61.9639465,72.3509259 L61.9639465,72.3509259 Z M35.2297157,56.5 C35.2297157,53.4498148 37.6944147,50.9683333 40.7241973,50.9683333 C43.7543478,50.9683333 46.2194147,53.4498148 46.2194147,56.5 C46.2194147,59.5501852 43.7543478,62.0316667 40.7241973,62.0316667 C37.6945987,62.0316667 35.2297157,59.5501852 35.2297157,56.5 L35.2297157,56.5 Z" id="Shape" fill="#36404C"></path>
                        <path d="M40.7241973,37.8951852 C39.2160201,37.8951852 37.988913,39.1305556 37.988913,40.6490741 C37.988913,42.1677778 39.2160201,43.4033333 40.7241973,43.4033333 C42.2327425,43.4033333 43.4602174,42.1677778 43.4602174,40.6490741 C43.4602174,39.1305556 42.2327425,37.8951852 40.7241973,37.8951852 L40.7241973,37.8951852 Z" id="Shape" fill="#000000"></path>
                        <path d="M56.4692809,37.8951852 C54.9609197,37.8951852 53.7338127,39.1305556 53.7338127,40.6490741 C53.7338127,42.1677778 54.9609197,43.4033333 56.4692809,43.4033333 C57.9776421,43.4033333 59.2047492,42.1677778 59.2047492,40.6490741 C59.2047492,39.1305556 57.9776421,37.8951852 56.4692809,37.8951852 L56.4692809,37.8951852 Z" id="Shape" fill="#000000"></path>
                        <path d="M72.2141806,37.8951852 C70.7058194,37.8951852 69.4787124,39.1305556 69.4787124,40.6490741 C69.4787124,42.1677778 70.7058194,43.4033333 72.2141806,43.4033333 C73.7225418,43.4033333 74.9496488,42.1677778 74.9496488,40.6490741 C74.9496488,39.1305556 73.7225418,37.8951852 72.2141806,37.8951852 L72.2141806,37.8951852 Z" id="Shape" fill="#000000"></path>
                        <path d="M56.4692809,53.7461111 C54.9609197,53.7461111 53.7338127,54.9814815 53.7338127,56.5 C53.7338127,58.0185185 54.9609197,59.2538889 56.4692809,59.2538889 C57.9776421,59.2538889 59.2047492,58.0185185 59.2047492,56.5 C59.2047492,54.9814815 57.9776421,53.7461111 56.4692809,53.7461111 L56.4692809,53.7461111 Z" id="Shape" fill="#000000"></path>
                        <path d="M40.7241973,69.5966667 C39.2160201,69.5966667 37.988913,70.8322222 37.988913,72.3509259 C37.988913,73.8694444 39.2160201,75.1048148 40.7241973,75.1048148 C42.2327425,75.1048148 43.4602174,73.8694444 43.4602174,72.3509259 C43.4602174,70.8322222 42.2327425,69.5966667 40.7241973,69.5966667 L40.7241973,69.5966667 Z" id="Shape" fill="#000000"></path>
                    </g>
                </g>
            </g>
        </g>
    </g>
</svg>